<?xml version="1.0" standalone="no"?>
<!DOCTYPE svg PUBLIC "-//W3C//DTD SVG 20010904//EN"
 "http://www.w3.org/TR/2001/REC-SVG-20010904/DTD/svg10.dtd">
<svg version="1.0" xmlns="http://www.w3.org/2000/svg"
 width="200.000000pt" height="200.000000pt" viewBox="0 0 200.000000 200.000000"
 preserveAspectRatio="xMidYMid meet">
<metadata>
Created by potrace 1.11, written by Peter Selinger 2001-2013
</metadata>
<g transform="translate(0.000000,200.000000) scale(0.100000,-0.100000)"
fill="#000000" stroke="none">
<path d="M839 1884 c-323 -58 -587 -289 -695 -608 -33 -97 -39 -142 -38 -296
1 -115 5 -148 28 -223 51 -169 118 -282 241 -402 166 -162 377 -250 612 -254
392 -7 746 244 867 614 32 101 36 119 43 236 24 393 -210 751 -585 891 -40 15
-85 30 -100 33 -134 28 -254 31 -373 9z m338 -25 c221 -48 395 -160 530 -340
133 -177 198 -433 163 -645 -59 -357 -304 -631 -648 -725 -90 -25 -292 -34
-362 -18 -25 6 -71 17 -104 25 -32 8 -95 33 -140 55 -253 127 -423 349 -477
622 -106 541 315 1048 866 1044 50 0 127 -8 172 -18z"/>
<path d="M950 1771 c0 -6 5 -13 10 -16 6 -3 10 -33 10 -65 0 -32 -4 -62 -10
-65 -25 -16 -5 -25 55 -25 l65 0 0 30 c0 22 -4 28 -15 24 -8 -4 -15 -10 -15
-16 0 -5 -10 -8 -22 -6 -21 3 -23 9 -24 61 -1 31 2 60 7 63 20 12 7 24 -26 24
-19 0 -35 -4 -35 -9z"/>
<path d="M1167 1753 c-4 -3 -7 -15 -7 -25 0 -15 5 -17 27 -12 21 6 25 4 20 -8
-3 -9 -11 -35 -18 -58 -8 -26 -20 -45 -31 -48 -27 -7 -16 -25 20 -36 33 -9 56
-1 35 12 -9 6 -7 22 9 65 20 55 38 74 38 41 0 -21 34 -14 38 9 3 12 -9 22 -40
36 -62 26 -84 32 -91 24z"/>
<path d="M735 1726 c-27 -11 -28 -13 -11 -23 16 -9 18 -20 14 -87 -3 -78 0
-84 36 -70 17 7 22 34 6 34 -5 0 -10 4 -10 9 0 11 59 33 61 23 1 -4 2 -13 3
-19 1 -16 4 -16 39 -8 29 8 36 22 13 31 -8 3 -35 32 -62 65 -26 32 -50 59 -53
59 -3 -1 -19 -7 -36 -14z m59 -58 c12 -17 13 -24 3 -30 -20 -13 -25 -9 -29 22
-5 35 5 39 26 8z"/>
<path d="M1392 1637 c4 -17 -70 -107 -88 -107 -19 0 -17 -14 4 -33 23 -21 46
-22 39 -3 -3 8 3 22 14 32 18 17 20 16 43 -6 20 -18 23 -26 13 -41 -6 -10 -20
-20 -31 -23 -19 -5 -19 -6 4 -26 27 -23 40 -26 40 -6 0 19 68 99 92 109 20 7
19 8 -6 28 -24 19 -53 18 -41 -1 3 -5 -2 -16 -11 -25 -16 -15 -19 -15 -42 9
-21 21 -23 27 -12 40 7 9 19 16 26 16 21 0 17 17 -8 34 -27 19 -40 20 -36 3z"/>
<path d="M526 1600 c-43 -36 -46 -41 -28 -47 29 -11 92 -91 85 -108 -10 -27
21 -16 69 24 45 37 46 39 29 55 -23 21 -31 20 -31 -4 0 -28 -36 -45 -49 -23
-7 14 -5 23 11 40 28 30 14 49 -19 23 -24 -19 -26 -19 -39 -3 -15 21 -5 35 28
39 13 1 24 3 26 3 6 2 -19 41 -26 41 -4 0 -29 -18 -56 -40z"/>
<path d="M387 1465 c-10 -14 -13 -26 -7 -26 19 -3 25 -5 43 -15 18 -10 17 -12
-7 -40 l-26 -29 -24 29 -23 28 -17 -23 c-21 -30 -20 -39 3 -39 11 0 42 -22 70
-49 47 -45 51 -48 65 -32 21 24 20 41 -3 41 -10 0 -24 7 -31 15 -11 13 -9 20
10 40 26 27 47 23 61 -12 l9 -25 21 26 c22 27 20 38 -6 42 -20 3 -95 67 -95
82 0 20 -24 13 -43 -13z"/>
<path d="M1577 1443 c-9 -46 -51 -98 -75 -96 -27 3 -28 -14 -3 -46 17 -22 49
-22 36 -1 -10 17 41 39 93 41 54 2 62 11 38 42 -11 15 -15 15 -25 3 -12 -14
-61 -28 -61 -17 1 12 28 41 39 41 17 0 13 25 -7 43 -25 23 -29 22 -35 -10z"/>
<path d="M1076 1335 c-8 -19 -18 -35 -21 -35 -3 0 -3 5 0 10 7 12 -12 40 -26
40 -11 0 0 -30 19 -53 14 -16 12 -24 -19 -85 l-33 -68 -24 44 c-18 34 -22 52
-17 83 6 33 4 39 -10 39 -13 0 -16 -6 -13 -25 8 -39 -8 -30 -26 15 -9 22 -22
40 -30 40 -17 0 -10 -37 12 -62 14 -17 13 -18 -12 -18 -40 0 -27 -24 15 -28
74 -7 100 -68 74 -177 l-17 -73 -39 26 c-29 20 -38 34 -39 55 0 16 -5 38 -11
49 -9 17 -13 18 -20 7 -5 -8 -6 -23 -3 -34 4 -11 -8 -1 -25 23 -30 41 -41 48
-54 36 -9 -9 12 -60 34 -80 10 -9 19 -26 19 -37 0 -16 5 -18 27 -14 29 5 81
-16 99 -42 7 -8 14 -38 17 -65 13 -108 49 -202 101 -260 39 -44 42 -24 4 26
-26 34 -35 56 -37 92 -4 87 30 156 79 156 33 0 66 23 56 39 -7 11 -22 9 -65
-7 -10 -4 -11 -1 -3 15 6 10 7 25 2 32 -10 17 -33 4 -26 -15 6 -17 -10 -19
-20 -3 -5 8 -10 6 -16 -5 -7 -13 -5 -21 9 -32 10 -9 11 -12 3 -8 -12 5 -13 4
-3 -6 9 -10 8 -21 -6 -49 -10 -20 -22 -52 -26 -71 l-8 -35 -13 50 c-22 80 -18
129 16 193 52 101 97 139 138 117 17 -9 20 -14 10 -18 -9 -4 -8 -6 4 -6 24 -1
31 14 13 29 -19 16 -19 34 0 26 9 -3 15 0 15 9 0 13 -28 14 -50 0 -6 -3 -10 0
-10 7 0 10 -3 9 -11 -2 -9 -13 -10 -13 -6 0 2 8 10 14 16 13 6 -2 11 6 11 18
0 33 -22 17 -37 -26 -7 -22 -29 -56 -47 -75 -19 -19 -41 -50 -51 -68 -46 -93
-13 39 39 151 18 40 43 81 56 92 13 11 20 14 16 8 -4 -8 -1 -13 8 -13 9 0 16
7 16 15 0 8 -5 15 -11 15 -5 0 -9 8 -8 18 5 53 -14 57 -35 7z m-179 -91 c-3
-3 -12 -4 -19 -1 -8 3 -5 6 6 6 11 1 17 -2 13 -5z m-75 -179 c11 -20 11 -20
-11 0 -13 11 -28 29 -33 40 -11 20 -11 20 11 0 13 -11 28 -29 33 -40z m313
-125 c-11 -5 -27 -9 -35 -9 -13 -1 -13 0 0 9 8 5 24 9 35 9 l20 0 -20 -9z"/>
<path d="M1110 1130 c0 -5 5 -10 11 -10 5 0 7 5 4 10 -3 6 -8 10 -11 10 -2 0
-4 -4 -4 -10z"/>
<path d="M1699 999 c-22 -13 -3 -32 33 -34 28 -1 38 3 41 17 3 10 0 18 -6 19
-7 0 -22 2 -34 3 -12 1 -28 -1 -34 -5z"/>
<path d="M296 985 c-7 -19 12 -28 51 -23 42 5 36 32 -8 36 -26 2 -38 -1 -43
-13z"/>
<path d="M557 543 c-3 -3 -3 -11 0 -19 7 -19 -26 -114 -43 -121 -26 -10 -14
-21 42 -42 60 -23 69 -22 77 9 5 18 2 20 -28 14 -37 -7 -47 2 -38 34 4 18 9
20 25 11 21 -11 48 -6 48 9 0 5 -13 12 -29 15 -24 5 -28 10 -24 27 6 24 26 26
47 5 20 -20 33 -19 39 3 3 15 -7 23 -53 40 -32 11 -61 18 -63 15z"/>
<path d="M1405 527 c-26 -22 -27 -25 -14 -53 12 -24 22 -30 58 -34 50 -6 63
-23 30 -40 -17 -10 -23 -9 -30 1 -12 20 -32 -3 -23 -25 14 -37 104 4 104 48 0
35 -14 46 -61 52 -51 6 -54 8 -45 29 5 13 13 15 37 10 26 -6 30 -4 27 12 -5
28 -51 28 -83 0z"/>
<path d="M1153 468 c-47 -8 -53 -12 -53 -34 0 -28 15 -31 38 -7 16 16 18 13
26 -47 6 -45 5 -65 -3 -68 -6 -2 -11 -8 -11 -13 0 -12 51 -11 70 1 13 8 13 11
-2 22 -20 16 -35 113 -19 123 6 3 11 1 11 -4 0 -6 7 -11 16 -11 20 0 15 44 -6
46 -8 1 -39 -3 -67 -8z"/>
<path d="M855 461 c-3 -5 -1 -12 4 -15 10 -7 -41 -120 -59 -131 -17 -11 -1
-25 29 -25 24 0 28 3 24 23 -4 22 -2 23 26 19 29 -4 55 -22 32 -22 -6 0 -11
-7 -11 -15 0 -10 11 -15 35 -15 19 0 35 5 35 10 0 6 -4 10 -8 10 -5 0 -17 36
-27 79 -14 64 -22 81 -39 85 -29 8 -34 7 -41 -3z m48 -77 c5 -29 4 -31 -18
-26 -24 4 -24 5 -9 34 18 34 19 34 27 -8z"/>
</g>
</svg>
